<?xml version="1.0" encoding="utf-8" ?>
<svg baseProfile="full" height="675" style="background:#0d0d0f" version="1.1" width="1200" xmlns="http://www.w3.org/2000/svg" xmlns:ev="http://www.w3.org/2001/xml-events" xmlns:xlink="http://www.w3.org/1999/xlink"><defs><linearGradient id="topGrad" x1="0%" x2="100%" y1="0%" y2="0%"><stop offset="0" stop-color="#10b981" /><stop offset="1" stop-color="#06b6d4" /></linearGradient></defs><rect fill="#0d0d0f" height="675" width="1200" x="0" y="0" /><rect fill="url(#topGrad)" height="8" width="1200" x="0" y="667" /><rect fill="#1a1a1f" height="80" width="1200" x="0" y="0" /><text fill="#10b981" font-family="Inter, Arial, sans-serif" font-size="18" font-weight="bold" letter-spacing="3" x="40" y="52">SOLFOUNDRY</text><rect fill="#8b5cf6" height="46" rx="23" width="180" x="980" y="22" /><text fill="white" font-family="Inter, Arial, sans-serif" font-size="16" font-weight="bold" text-anchor="middle" x="1070" y="52">T2</text><rect fill="#1a1a1f" height="540" rx="16" stroke="#2a2a35" stroke-width="1" width="1120" x="40" y="100" /><rect fill="#0d0d0f" height="80" rx="8" stroke="#10b981" stroke-dasharray="6,4" stroke-width="1" width="1040" x="80" y="130" /><text fill="#6b7280" font-family="Inter, Arial, sans-serif" font-size="22" font-style="italic" text-anchor="middle" x="600" y="175">[ BOUNTY TITLE ]</text><rect fill="#8b5cf6" height="95" opacity="0.15" rx="12" stroke="#8b5cf6" stroke-width="2" width="500" x="350" y="245" /><text fill="#6b7280" font-family="Inter, Arial, sans-serif" font-size="12" letter-spacing="3" text-anchor="middle" x="600" y="275">REWARD</text><text fill="#10b981" font-family="Inter, Arial, sans-serif" font-size="40" font-weight="bold" text-anchor="middle" x="600" y="325">500K $FNDRY</text><rect fill="#0d0d0f" height="60" rx="8" stroke="#2a2a35" stroke-dasharray="4,4" stroke-width="1" width="1040" x="80" y="370" /><text fill="#6b7280" font-family="Inter, Arial, sans-serif" font-size="17" font-style="italic" text-anchor="middle" x="600" y="408">[ Describe the bounty in one compelling sentence ]</text><rect fill="#10b981" height="52" rx="26" width="320" x="440" y="465" /><text fill="white" font-family="Inter, Arial, sans-serif" font-size="15" font-weight="bold" text-anchor="middle" x="600" y="497">VIEW BOUNTY  →</text><text fill="#10b981" font-family="Inter, Arial, sans-serif" font-size="14" letter-spacing="1" text-anchor="middle" x="600" y="560">#BountyHunting  #Web3  #Solana</text></svg>