<?xml version="1.0" encoding="utf-8" ?>
<svg baseProfile="full" height="1080" style="background:#0d0d0f" version="1.1" width="1080" xmlns="http://www.w3.org/2000/svg" xmlns:ev="http://www.w3.org/2001/xml-events" xmlns:xlink="http://www.w3.org/1999/xlink"><defs><linearGradient id="topGrad" x1="0%" x2="100%" y1="0%" y2="0%"><stop offset="0" stop-color="#10b981" /><stop offset="1" stop-color="#06b6d4" /></linearGradient><linearGradient id="rewardGrad" x1="0%" x2="100%" y1="0%" y2="0%"><stop offset="0" stop-color="#10b981" stop-opacity="0.4" /><stop offset="1" stop-color="#06b6d4" stop-opacity="0.4" /></linearGradient></defs><rect fill="#0d0d0f" height="1080" width="1080" x="0" y="0" /><rect fill="url(#topGrad)" height="8" width="1080" x="0" y="0" /><rect fill="#1a1a1f" height="80" width="1080" x="0" y="8" /><text fill="#10b981" font-family="Inter, Arial, sans-serif" font-size="20" font-weight="bold" letter-spacing="3" x="48" y="62">SOLFOUNDRY</text><rect fill="#10b981" height="48" rx="24" width="160" x="880" y="24" /><text fill="white" font-family="Inter, Arial, sans-serif" font-size="18" font-weight="bold" text-anchor="middle" x="960" y="55">T1</text><rect fill="#1a1a1f" height="700" rx="16" stroke="#2a2a35" stroke-width="1" width="1000" x="40" y="110" /><text fill="#6b7280" font-family="monospace" font-size="13" letter-spacing="2" x="60" y="155">TEMPLATE 3</text><rect fill="#0d0d0f" height="90" rx="8" stroke="#10b981" stroke-dasharray="6,4" stroke-width="1" width="960" x="60" y="175" /><text fill="#6b7280" font-family="Inter, Arial, sans-serif" font-size="26" font-style="italic" text-anchor="middle" x="540" y="225">[ BOUNTY TITLE ]</text><rect fill="url(#rewardGrad)" height="110" rx="12" stroke="#10b981" stroke-width="2" width="600" x="240" y="295" /><text fill="#6b7280" font-family="Inter, Arial, sans-serif" font-size="13" letter-spacing="3" text-anchor="middle" x="540" y="332">REWARD</text><text fill="#10b981" font-family="Inter, Arial, sans-serif" font-size="48" font-weight="bold" text-anchor="middle" x="540" y="390">200K $FNDRY</text><line stroke="#2a2a35" stroke-width="1" x1="120" x2="960" y1="440" y2="440" /><rect fill="#0d0d0f" height="80" rx="8" stroke="#2a2a35" stroke-dasharray="4,4" stroke-width="1" width="960" x="60" y="460" /><text fill="#6b7280" font-family="Inter, Arial, sans-serif" font-size="18" font-style="italic" text-anchor="middle" x="540" y="505">[ One-sentence bounty description ]</text><rect fill="#1a1a1f" height="250" rx="16" stroke="#2a2a35" stroke-width="1" width="1000" x="40" y="810" /><text fill="#10b981" font-family="Arial" font-size="48" text-anchor="middle" x="540" y="870">⚒</text><text fill="white" font-family="Inter, Arial, sans-serif" font-size="26" font-weight="bold" letter-spacing="1" text-anchor="middle" x="540" y="930">SOLVE THIS BOUNTY</text><text fill="#6b7280" font-family="Inter, Arial, sans-serif" font-size="14" text-anchor="middle" x="540" y="975">github.com/solfoundry/solfoundry</text><text fill="#10b981" font-family="Inter, Arial, sans-serif" font-size="14" letter-spacing="1" text-anchor="middle" x="540" y="1015">#BountyHunting  #Web3  #Solana</text><rect fill="url(#topGrad)" height="8" width="1080" x="0" y="1072" /></svg>