<?xml version="1.0" encoding="UTF-8"?>
<svg width="512" height="512" viewBox="0 0 512 512" fill="none" xmlns="http://www.w3.org/2000/svg" role="img" aria-labelledby="title desc">
  <title id="title">SolFoundry Forge Sparks sticker</title>
  <desc id="desc">Anvil and hammer logo variant with a hotter forge treatment.</desc>
  <defs>
    <linearGradient id="sol" x1="96" y1="80" x2="416" y2="432" gradientUnits="userSpaceOnUse">
      <stop offset="0" stop-color="#9945FF"/>
      <stop offset="1" stop-color="#14F195"/>
    </linearGradient>
    <linearGradient id="forge" x1="142" y1="88" x2="358" y2="430" gradientUnits="userSpaceOnUse">
      <stop offset="0" stop-color="#FFD166"/>
      <stop offset="0.45" stop-color="#FF4D6D"/>
      <stop offset="1" stop-color="#9945FF"/>
    </linearGradient>
    <linearGradient id="cool" x1="111" y1="75" x2="399" y2="406" gradientUnits="userSpaceOnUse">
      <stop offset="0" stop-color="#5EE1FF"/>
      <stop offset="1" stop-color="#14F195"/>
    </linearGradient>
    <filter id="softShadow" x="0" y="0" width="512" height="512" filterUnits="userSpaceOnUse" color-interpolation-filters="sRGB">
      <feDropShadow dx="0" dy="18" stdDeviation="18" flood-color="#000000" flood-opacity="0.45"/>
    </filter>
    <filter id="glow" x="0" y="0" width="512" height="512" filterUnits="userSpaceOnUse" color-interpolation-filters="sRGB">
      <feGaussianBlur stdDeviation="8" result="blur"/>
      <feMerge>
        <feMergeNode in="blur"/>
        <feMergeNode in="SourceGraphic"/>
      </feMerge>
    </filter>
  </defs>
  <g filter="url(#softShadow)">

            <path d="M256 43 411 132v248L256 469 101 380V132L256 43Z" fill="#130d1f" stroke="#FFFFFF" stroke-width="20" stroke-linejoin="round"/>
            <path d="M256 72 386 147v218L256 440 126 365V147L256 72Z" fill="none" stroke="#FFD166" stroke-width="8" stroke-linejoin="round"/>
            <g transform="translate(258 204) scale(1.42)">
            <path d="M1-122c25 58 90 86 68 171-14 53-58 83-111 72-52-12-85-57-77-108 7-49 47-80 42-132 30 29 44 57 41 86 29-25 37-55 37-89Z" fill="url(#forge)" filter="url(#glow)"/>
            <path d="M-1-50c32 40 48 68 35 101-11 28-42 42-70 25-25-16-31-48-12-76 14 17 29 23 47 17-13-23-13-45 0-67Z" fill="#FFD166"/>
          </g>
            <g transform="translate(256 250) scale(1.08)">
            <path d="M-74 48-47-19H45l29 67H-74Z" fill="url(#sol)"/>
            <path d="M-61 33H61l13 31H-76l15-31Z" fill="#9945FF" opacity=".65"/>
            <rect x="-62" y="-55" width="124" height="34" rx="8" fill="url(#cool)"/>
            <path d="M-62-44-114-51l12 25 40-4v-14Z" fill="#9945FF"/>
            <rect x="-33" y="49" width="66" height="31" rx="7" fill="#14F195" opacity=".88"/>

                  <g transform="translate(26 -72) scale(0.62)">
                  <path d="M0-34 7-8 33 0 7 8 0 34-8 8-34 0-8-8Z" fill="#FFD166"/>
                  <circle cx="46" cy="-26" r="8" fill="#14F195"/>
                  <circle cx="-42" cy="-22" r="6" fill="#9945FF"/>
                  <circle cx="36" cy="34" r="5" fill="#FFD166"/>
                  <circle cx="-26" cy="42" r="5" fill="#14F195"/>
                </g>
          </g>
            <g transform="translate(252 137) scale(1.25)">
            <path d="M0-34 7-8 33 0 7 8 0 34-8 8-34 0-8-8Z" fill="#FFD166"/>
            <circle cx="46" cy="-26" r="8" fill="#14F195"/>
            <circle cx="-42" cy="-22" r="6" fill="#9945FF"/>
            <circle cx="36" cy="34" r="5" fill="#FFD166"/>
            <circle cx="-26" cy="42" r="5" fill="#14F195"/>
          </g>
            <text x="256" y="417" text-anchor="middle" font-family="Arial Black, Impact, Helvetica, sans-serif" font-size="44" font-weight="900" letter-spacing="0" fill="#FFFFFF" stroke="#0a0a0f" stroke-width="9" paint-order="stroke">FORGED</text>

  </g>
</svg>
