<?xml version="1.0" encoding="UTF-8"?>
<svg width="512" height="512" viewBox="0 0 512 512" fill="none" xmlns="http://www.w3.org/2000/svg" role="img" aria-labelledby="title desc">
  <title id="title">SolFoundry GM Builder sticker</title>
  <desc id="desc">Friendly builder reaction sticker for community chat.</desc>
  <defs>
    <linearGradient id="sol" x1="96" y1="80" x2="416" y2="432" gradientUnits="userSpaceOnUse">
      <stop offset="0" stop-color="#9945FF"/>
      <stop offset="1" stop-color="#14F195"/>
    </linearGradient>
    <linearGradient id="forge" x1="142" y1="88" x2="358" y2="430" gradientUnits="userSpaceOnUse">
      <stop offset="0" stop-color="#FFD166"/>
      <stop offset="0.45" stop-color="#FF4D6D"/>
      <stop offset="1" stop-color="#9945FF"/>
    </linearGradient>
    <linearGradient id="cool" x1="111" y1="75" x2="399" y2="406" gradientUnits="userSpaceOnUse">
      <stop offset="0" stop-color="#5EE1FF"/>
      <stop offset="1" stop-color="#14F195"/>
    </linearGradient>
    <filter id="softShadow" x="0" y="0" width="512" height="512" filterUnits="userSpaceOnUse" color-interpolation-filters="sRGB">
      <feDropShadow dx="0" dy="18" stdDeviation="18" flood-color="#000000" flood-opacity="0.45"/>
    </filter>
    <filter id="glow" x="0" y="0" width="512" height="512" filterUnits="userSpaceOnUse" color-interpolation-filters="sRGB">
      <feGaussianBlur stdDeviation="8" result="blur"/>
      <feMerge>
        <feMergeNode in="blur"/>
        <feMergeNode in="SourceGraphic"/>
      </feMerge>
    </filter>
  </defs>
  <g filter="url(#softShadow)">

            <path d="M256 48c96 0 179 67 194 161 20 38 8 92-33 126-25 80-103 129-194 117-85-11-154-72-175-151-17-61 3-134 55-182C142 74 196 48 256 48Z" fill="#11170d" stroke="#FFFFFF" stroke-width="20"/>
            <path d="M254 70c86 0 160 59 174 143 18 34 6 80-28 108-23 70-91 113-171 103-74-10-134-63-153-132-15-53 3-117 48-158 35-40 82-64 130-64Z" fill="none" stroke="#FFD166" stroke-width="8"/>
            <g>
            <line x1="361.0" y1="212.0" x2="396.0" y2="212.0" stroke="#FFD166" stroke-width="15" stroke-linecap="round"/>
      <line x1="346.9" y1="264.5" x2="377.2" y2="282.0" stroke="#FFD166" stroke-width="15" stroke-linecap="round"/>
      <line x1="308.5" y1="302.9" x2="326.0" y2="333.2" stroke="#FFD166" stroke-width="15" stroke-linecap="round"/>
      <line x1="256.0" y1="317.0" x2="256.0" y2="352.0" stroke="#FFD166" stroke-width="15" stroke-linecap="round"/>
      <line x1="203.5" y1="302.9" x2="186.0" y2="333.2" stroke="#FFD166" stroke-width="15" stroke-linecap="round"/>
      <line x1="165.1" y1="264.5" x2="134.8" y2="282.0" stroke="#FFD166" stroke-width="15" stroke-linecap="round"/>
      <line x1="151.0" y1="212.0" x2="116.0" y2="212.0" stroke="#FFD166" stroke-width="15" stroke-linecap="round"/>
      <line x1="165.1" y1="159.5" x2="134.8" y2="142.0" stroke="#FFD166" stroke-width="15" stroke-linecap="round"/>
      <line x1="203.5" y1="121.1" x2="186.0" y2="90.8" stroke="#FFD166" stroke-width="15" stroke-linecap="round"/>
      <line x1="256.0" y1="107.0" x2="256.0" y2="72.0" stroke="#FFD166" stroke-width="15" stroke-linecap="round"/>
      <line x1="308.5" y1="121.1" x2="326.0" y2="90.8" stroke="#FFD166" stroke-width="15" stroke-linecap="round"/>
      <line x1="346.9" y1="159.5" x2="377.2" y2="142.0" stroke="#FFD166" stroke-width="15" stroke-linecap="round"/>
            <circle cx="256" cy="212" r="110" fill="#FFD166" stroke="#FFFFFF" stroke-width="10"/>
            <circle cx="218" cy="190" r="14" fill="#0a0a0f"/>
            <circle cx="295" cy="190" r="14" fill="#0a0a0f"/>
            <path d="M209 238c25 30 70 33 99 0" stroke="#0a0a0f" stroke-width="14" stroke-linecap="round"/>
          </g>
            <g transform="translate(330 280) scale(0.5)">
            <path d="M-74 48-47-19H45l29 67H-74Z" fill="url(#sol)"/>
            <path d="M-61 33H61l13 31H-76l15-31Z" fill="#9945FF" opacity=".65"/>
            <rect x="-62" y="-55" width="124" height="34" rx="8" fill="url(#cool)"/>
            <path d="M-62-44-114-51l12 25 40-4v-14Z" fill="#9945FF"/>
            <rect x="-33" y="49" width="66" height="31" rx="7" fill="#14F195" opacity=".88"/>

                  <g transform="translate(26 -72) scale(0.62)">
                  <path d="M0-34 7-8 33 0 7 8 0 34-8 8-34 0-8-8Z" fill="#FFD166"/>
                  <circle cx="46" cy="-26" r="8" fill="#14F195"/>
                  <circle cx="-42" cy="-22" r="6" fill="#9945FF"/>
                  <circle cx="36" cy="34" r="5" fill="#FFD166"/>
                  <circle cx="-26" cy="42" r="5" fill="#14F195"/>
                </g>
          </g>
            <text x="256" y="404" text-anchor="middle" font-family="Arial Black, Impact, Helvetica, sans-serif" font-size="76" font-weight="900" letter-spacing="0" fill="#FFD166" stroke="#0a0a0f" stroke-width="9" paint-order="stroke">GM</text>

  </g>
</svg>
