<?xml version="1.0" encoding="UTF-8"?>
<svg width="512" height="512" viewBox="0 0 512 512" fill="none" xmlns="http://www.w3.org/2000/svg" role="img" aria-labelledby="title desc">
  <title id="title">SolFoundry Ship It sticker</title>
  <desc id="desc">Rocket and code trail sticker for completed bounty work.</desc>
  <defs>
    <linearGradient id="sol" x1="96" y1="80" x2="416" y2="432" gradientUnits="userSpaceOnUse">
      <stop offset="0" stop-color="#9945FF"/>
      <stop offset="1" stop-color="#14F195"/>
    </linearGradient>
    <linearGradient id="forge" x1="142" y1="88" x2="358" y2="430" gradientUnits="userSpaceOnUse">
      <stop offset="0" stop-color="#FFD166"/>
      <stop offset="0.45" stop-color="#FF4D6D"/>
      <stop offset="1" stop-color="#9945FF"/>
    </linearGradient>
    <linearGradient id="cool" x1="111" y1="75" x2="399" y2="406" gradientUnits="userSpaceOnUse">
      <stop offset="0" stop-color="#5EE1FF"/>
      <stop offset="1" stop-color="#14F195"/>
    </linearGradient>
    <filter id="softShadow" x="0" y="0" width="512" height="512" filterUnits="userSpaceOnUse" color-interpolation-filters="sRGB">
      <feDropShadow dx="0" dy="18" stdDeviation="18" flood-color="#000000" flood-opacity="0.45"/>
    </filter>
    <filter id="glow" x="0" y="0" width="512" height="512" filterUnits="userSpaceOnUse" color-interpolation-filters="sRGB">
      <feGaussianBlur stdDeviation="8" result="blur"/>
      <feMerge>
        <feMergeNode in="blur"/>
        <feMergeNode in="SourceGraphic"/>
      </feMerge>
    </filter>
  </defs>
  <g filter="url(#softShadow)">

            <path d="M99 99 348 55 444 304 176 455 58 269Z" fill="#10172a" stroke="#FFFFFF" stroke-width="20" stroke-linejoin="round"/>
            <path d="M118 119 338 80 420 296 180 430 82 267Z" fill="none" stroke="#5EE1FF" stroke-width="8" stroke-linejoin="round"/>
            <g opacity=".7" font-family="SFMono-Regular, Menlo, Monaco, Consolas, monospace" font-size="30" font-weight="800" fill="#14F195">
            <text x="93" y="168">&lt;/&gt;</text>
            <text x="86" y="245">{ }</text>
            <text x="323" y="314">git</text>
          </g>
            <g transform="translate(265 214) scale(1.18) rotate(36)">
            <path d="M0-118c46 35 69 88 70 159L25 70-25 70-70 41C-69-30-46-83 0-118Z" fill="#FFFFFF"/>
            <path d="M0-93c31 30 47 70 48 121L20 48h-40l-28-20C-47-23-31-63 0-93Z" fill="url(#sol)"/>
            <circle cx="0" cy="-28" r="24" fill="#0a0a0f" stroke="#5EE1FF" stroke-width="8"/>
            <path d="M-27 68 0 126 27 68Z" fill="url(#forge)"/>
            <path d="M-69 40-101 74l56 4 20-11Z" fill="#9945FF"/>
            <path d="M69 40 101 74l-56 4-20-11Z" fill="#14F195"/>
          </g>
            <g transform="translate(180 312) scale(0.58)">
            <path d="M-74 48-47-19H45l29 67H-74Z" fill="url(#sol)"/>
            <path d="M-61 33H61l13 31H-76l15-31Z" fill="#9945FF" opacity=".65"/>
            <rect x="-62" y="-55" width="124" height="34" rx="8" fill="url(#cool)"/>
            <path d="M-62-44-114-51l12 25 40-4v-14Z" fill="#9945FF"/>
            <rect x="-33" y="49" width="66" height="31" rx="7" fill="#14F195" opacity=".88"/>

                  <g transform="translate(26 -72) scale(0.62)">
                  <path d="M0-34 7-8 33 0 7 8 0 34-8 8-34 0-8-8Z" fill="#FFD166"/>
                  <circle cx="46" cy="-26" r="8" fill="#14F195"/>
                  <circle cx="-42" cy="-22" r="6" fill="#9945FF"/>
                  <circle cx="36" cy="34" r="5" fill="#FFD166"/>
                  <circle cx="-26" cy="42" r="5" fill="#14F195"/>
                </g>
          </g>
            <text x="256" y="412" text-anchor="middle" font-family="Arial Black, Impact, Helvetica, sans-serif" font-size="48" font-weight="900" letter-spacing="0" fill="#FFFFFF" stroke="#0a0a0f" stroke-width="9" paint-order="stroke">SHIP IT</text>

  </g>
</svg>
