<?xml version="1.0" encoding="UTF-8"?>
<svg width="512" height="512" viewBox="0 0 512 512" fill="none" xmlns="http://www.w3.org/2000/svg" role="img" aria-labelledby="title desc">
  <title id="title">SolFoundry Automaton Grid sticker</title>
  <desc id="desc">Cellular automaton grid sticker with SolFoundry anvil core.</desc>
  <defs>
    <linearGradient id="sol" x1="97" y1="82" x2="411" y2="423" gradientUnits="userSpaceOnUse">
      <stop offset="0" stop-color="#9945FF"/>
      <stop offset="1" stop-color="#14F195"/>
    </linearGradient>
    <linearGradient id="hot" x1="152" y1="78" x2="347" y2="431" gradientUnits="userSpaceOnUse">
      <stop offset="0" stop-color="#FFD166"/>
      <stop offset="0.5" stop-color="#FF4D6D"/>
      <stop offset="1" stop-color="#9945FF"/>
    </linearGradient>
    <linearGradient id="cool" x1="112" y1="78" x2="398" y2="408" gradientUnits="userSpaceOnUse">
      <stop offset="0" stop-color="#5EE1FF"/>
      <stop offset="1" stop-color="#14F195"/>
    </linearGradient>
    <filter id="shadow" x="0" y="0" width="512" height="512" filterUnits="userSpaceOnUse">
      <feDropShadow dx="0" dy="18" stdDeviation="18" flood-color="#000000" flood-opacity="0.45"/>
    </filter>
    <filter id="glow" x="0" y="0" width="512" height="512" filterUnits="userSpaceOnUse">
      <feGaussianBlur stdDeviation="8" result="blur"/>
      <feMerge>
        <feMergeNode in="blur"/>
        <feMergeNode in="SourceGraphic"/>
      </feMerge>
    </filter>
  </defs>
  <g filter="url(#shadow)">
      <rect x="67" y="62" width="378" height="388" rx="91" fill="#0c1022" stroke="#FFFFFF" stroke-width="20"/>
            <rect x="91" y="86" width="330" height="340" rx="68" fill="none" stroke="#9945FF" stroke-width="8"/>      <g><rect x="157" y="136" width="34" height="34" rx="8" fill="url(#sol)" stroke="#FFFFFF" stroke-width="5" opacity="1"/>
      <rect x="207" y="136" width="34" height="34" rx="8" fill="#121421" stroke="#FFFFFF" stroke-width="5" opacity="0.35"/>
      <rect x="257" y="136" width="34" height="34" rx="8" fill="url(#sol)" stroke="#FFFFFF" stroke-width="5" opacity="1"/>
      <rect x="307" y="136" width="34" height="34" rx="8" fill="#121421" stroke="#FFFFFF" stroke-width="5" opacity="0.35"/>
      <rect x="357" y="136" width="34" height="34" rx="8" fill="url(#sol)" stroke="#FFFFFF" stroke-width="5" opacity="1"/>
      <rect x="157" y="180" width="34" height="34" rx="8" fill="#121421" stroke="#FFFFFF" stroke-width="5" opacity="0.35"/>
      <rect x="207" y="180" width="34" height="34" rx="8" fill="url(#sol)" stroke="#FFFFFF" stroke-width="5" opacity="1"/>
      <rect x="257" y="180" width="34" height="34" rx="8" fill="url(#sol)" stroke="#FFFFFF" stroke-width="5" opacity="1"/>
      <rect x="307" y="180" width="34" height="34" rx="8" fill="url(#sol)" stroke="#FFFFFF" stroke-width="5" opacity="1"/>
      <rect x="357" y="180" width="34" height="34" rx="8" fill="#121421" stroke="#FFFFFF" stroke-width="5" opacity="0.35"/>
      <rect x="157" y="224" width="34" height="34" rx="8" fill="url(#sol)" stroke="#FFFFFF" stroke-width="5" opacity="1"/>
      <rect x="207" y="224" width="34" height="34" rx="8" fill="#121421" stroke="#FFFFFF" stroke-width="5" opacity="0.35"/>
      <rect x="257" y="224" width="34" height="34" rx="8" fill="url(#sol)" stroke="#FFFFFF" stroke-width="5" opacity="1"/>
      <rect x="307" y="224" width="34" height="34" rx="8" fill="#121421" stroke="#FFFFFF" stroke-width="5" opacity="0.35"/>
      <rect x="357" y="224" width="34" height="34" rx="8" fill="url(#sol)" stroke="#FFFFFF" stroke-width="5" opacity="1"/>
      <rect x="157" y="268" width="34" height="34" rx="8" fill="#121421" stroke="#FFFFFF" stroke-width="5" opacity="0.35"/>
      <rect x="207" y="268" width="34" height="34" rx="8" fill="url(#sol)" stroke="#FFFFFF" stroke-width="5" opacity="1"/>
      <rect x="257" y="268" width="34" height="34" rx="8" fill="url(#sol)" stroke="#FFFFFF" stroke-width="5" opacity="1"/>
      <rect x="307" y="268" width="34" height="34" rx="8" fill="url(#sol)" stroke="#FFFFFF" stroke-width="5" opacity="1"/>
      <rect x="357" y="268" width="34" height="34" rx="8" fill="#121421" stroke="#FFFFFF" stroke-width="5" opacity="0.35"/>
      <rect x="157" y="312" width="34" height="34" rx="8" fill="url(#sol)" stroke="#FFFFFF" stroke-width="5" opacity="1"/>
      <rect x="207" y="312" width="34" height="34" rx="8" fill="#121421" stroke="#FFFFFF" stroke-width="5" opacity="0.35"/>
      <rect x="257" y="312" width="34" height="34" rx="8" fill="url(#sol)" stroke="#FFFFFF" stroke-width="5" opacity="1"/>
      <rect x="307" y="312" width="34" height="34" rx="8" fill="#121421" stroke="#FFFFFF" stroke-width="5" opacity="0.35"/>
      <rect x="357" y="312" width="34" height="34" rx="8" fill="url(#sol)" stroke="#FFFFFF" stroke-width="5" opacity="1"/></g>      <g transform="translate(256 235) scale(0.72)">
            <path d="M-74 48-47-19H45l29 67H-74Z" fill="url(#sol)"/>
            <path d="M-61 33H61l13 31H-76l15-31Z" fill="#9945FF" opacity=".62"/>
            <rect x="-62" y="-55" width="124" height="34" rx="8" fill="url(#cool)"/>
            <path d="M-62-44-114-51l12 25 40-4v-14Z" fill="#9945FF"/>
            <rect x="-33" y="49" width="66" height="31" rx="7" fill="#14F195" opacity=".9"/>


            <g transform="translate(30 -78) scale(0.54)">
              <path d="M0-34 8-8 34 0 8 8 0 34-8 8-34 0-8-8Z" fill="#FFD166"/>
              <circle cx="45" cy="-27" r="7" fill="#14F195"/>
              <circle cx="-42" cy="-22" r="6" fill="#9945FF"/>
              <circle cx="36" cy="34" r="5" fill="#FFD166"/>
            </g>
          </g>      <text x="256" y="406" text-anchor="middle" font-family="Arial Black, Impact, Helvetica, sans-serif" font-size="68" font-weight="900" letter-spacing="0" fill="#FFFFFF" stroke="#090A10" stroke-width="9" paint-order="stroke">GRID</text>
  </g>
</svg>
