<?xml version="1.0" encoding="UTF-8"?>
<svg width="512" height="512" viewBox="0 0 512 512" fill="none" xmlns="http://www.w3.org/2000/svg" role="img" aria-labelledby="title desc">
  <title id="title">SolFoundry Night Builder sticker</title>
  <desc id="desc">Late-night terminal builder sticker for developer culture.</desc>
  <defs>
    <linearGradient id="sol" x1="97" y1="82" x2="411" y2="423" gradientUnits="userSpaceOnUse">
      <stop offset="0" stop-color="#9945FF"/>
      <stop offset="1" stop-color="#14F195"/>
    </linearGradient>
    <linearGradient id="hot" x1="152" y1="78" x2="347" y2="431" gradientUnits="userSpaceOnUse">
      <stop offset="0" stop-color="#FFD166"/>
      <stop offset="0.5" stop-color="#FF4D6D"/>
      <stop offset="1" stop-color="#9945FF"/>
    </linearGradient>
    <linearGradient id="cool" x1="112" y1="78" x2="398" y2="408" gradientUnits="userSpaceOnUse">
      <stop offset="0" stop-color="#5EE1FF"/>
      <stop offset="1" stop-color="#14F195"/>
    </linearGradient>
    <filter id="shadow" x="0" y="0" width="512" height="512" filterUnits="userSpaceOnUse">
      <feDropShadow dx="0" dy="18" stdDeviation="18" flood-color="#000000" flood-opacity="0.45"/>
    </filter>
    <filter id="glow" x="0" y="0" width="512" height="512" filterUnits="userSpaceOnUse">
      <feGaussianBlur stdDeviation="8" result="blur"/>
      <feMerge>
        <feMergeNode in="blur"/>
        <feMergeNode in="SourceGraphic"/>
      </feMerge>
    </filter>
  </defs>
  <g filter="url(#shadow)">
      <path d="M99 98 347 54 444 304 177 456 58 269Z" fill="#0b1220" stroke="#FFFFFF" stroke-width="20" stroke-linejoin="round"/>
            <path d="M119 119 337 80 419 296 181 429 83 267Z" fill="none" stroke="#5EE1FF" stroke-width="8" stroke-linejoin="round"/>      <g>
            <circle cx="334" cy="143" r="58" fill="#FFD166"/>
            <circle cx="359" cy="126" r="58" fill="#0b1220"/>
            <circle cx="145" cy="142" r="6" fill="#5EE1FF"/>
            <circle cx="183" cy="113" r="5" fill="#14F195"/>
            <circle cx="391" cy="240" r="5" fill="#9945FF"/>
          </g>      <g transform="translate(130 190)">
            <rect x="0" y="0" width="252" height="136" rx="26" fill="#121421" stroke="#FFFFFF" stroke-width="9"/>
            <circle cx="35" cy="33" r="8" fill="#FF4D6D"/>
            <circle cx="62" cy="33" r="8" fill="#FFD166"/>
            <circle cx="89" cy="33" r="8" fill="#14F195"/>
            <path d="M42 76 73 96 42 116" stroke="#14F195" stroke-width="12" stroke-linecap="round" stroke-linejoin="round"/>
            <rect x="96" y="93" width="88" height="12" rx="6" fill="#5EE1FF"/>
          </g>      <g transform="translate(339 300) scale(0.5)">
            <path d="M-74 48-47-19H45l29 67H-74Z" fill="url(#sol)"/>
            <path d="M-61 33H61l13 31H-76l15-31Z" fill="#9945FF" opacity=".62"/>
            <rect x="-62" y="-55" width="124" height="34" rx="8" fill="url(#cool)"/>
            <path d="M-62-44-114-51l12 25 40-4v-14Z" fill="#9945FF"/>
            <rect x="-33" y="49" width="66" height="31" rx="7" fill="#14F195" opacity=".9"/>


            <g transform="translate(30 -78) scale(0.54)">
              <path d="M0-34 8-8 34 0 8 8 0 34-8 8-34 0-8-8Z" fill="#FFD166"/>
              <circle cx="45" cy="-27" r="7" fill="#14F195"/>
              <circle cx="-42" cy="-22" r="6" fill="#9945FF"/>
              <circle cx="36" cy="34" r="5" fill="#FFD166"/>
            </g>
          </g>      <text x="256" y="407" text-anchor="middle" font-family="Arial Black, Impact, Helvetica, sans-serif" font-size="58" font-weight="900" letter-spacing="0" fill="#FFFFFF" stroke="#090A10" stroke-width="9" paint-order="stroke">BUILD</text>
  </g>
</svg>
