<?xml version="1.0" encoding="UTF-8"?>
<svg width="512" height="512" viewBox="0 0 512 512" fill="none" xmlns="http://www.w3.org/2000/svg" role="img" aria-labelledby="title desc">
  <title id="title">SolFoundry Rank Up sticker</title>
  <desc id="desc">Medal sticker for leveling up through bounty completions.</desc>
  <defs>
    <linearGradient id="sol" x1="97" y1="82" x2="411" y2="423" gradientUnits="userSpaceOnUse">
      <stop offset="0" stop-color="#9945FF"/>
      <stop offset="1" stop-color="#14F195"/>
    </linearGradient>
    <linearGradient id="hot" x1="152" y1="78" x2="347" y2="431" gradientUnits="userSpaceOnUse">
      <stop offset="0" stop-color="#FFD166"/>
      <stop offset="0.5" stop-color="#FF4D6D"/>
      <stop offset="1" stop-color="#9945FF"/>
    </linearGradient>
    <linearGradient id="cool" x1="112" y1="78" x2="398" y2="408" gradientUnits="userSpaceOnUse">
      <stop offset="0" stop-color="#5EE1FF"/>
      <stop offset="1" stop-color="#14F195"/>
    </linearGradient>
    <filter id="shadow" x="0" y="0" width="512" height="512" filterUnits="userSpaceOnUse">
      <feDropShadow dx="0" dy="18" stdDeviation="18" flood-color="#000000" flood-opacity="0.45"/>
    </filter>
    <filter id="glow" x="0" y="0" width="512" height="512" filterUnits="userSpaceOnUse">
      <feGaussianBlur stdDeviation="8" result="blur"/>
      <feMerge>
        <feMergeNode in="blur"/>
        <feMergeNode in="SourceGraphic"/>
      </feMerge>
    </filter>
  </defs>
  <g filter="url(#shadow)">
      <circle cx="256" cy="256" r="207" fill="#16120a" stroke="#FFFFFF" stroke-width="20"/>
            <circle cx="256" cy="256" r="184" fill="none" stroke="#FFD166" stroke-width="9"/>      <g transform="translate(256 231)">
            <path d="M-76-144h58L0-65l18-79h58L38-38h-76l-38-106Z" fill="url(#sol)" stroke="#FFFFFF" stroke-width="8" stroke-linejoin="round"/>
            <circle cx="0" cy="30" r="104" fill="#FFD166" stroke="#FFFFFF" stroke-width="11"/>
            <path d="M0-31 18 8l43 5-31 30 8 43L0 65l-38 21 8-43-31-30 43-5Z" fill="#090A10"/>
          </g>
      <g transform="translate(259 121) scale(1)">
        <path d="M0-34 8-8 34 0 8 8 0 34-8 8-34 0-8-8Z" fill="#FFD166"/>
        <circle cx="45" cy="-27" r="7" fill="#14F195"/>
        <circle cx="-42" cy="-22" r="6" fill="#9945FF"/>
        <circle cx="36" cy="34" r="5" fill="#FFD166"/>
      </g>      <text x="256" y="404" text-anchor="middle" font-family="Arial Black, Impact, Helvetica, sans-serif" font-size="43" font-weight="900" letter-spacing="0" fill="#FFD166" stroke="#090A10" stroke-width="9" paint-order="stroke">RANK UP</text>
  </g>
</svg>
