<?xml version="1.0" encoding="UTF-8"?>
<svg width="512" height="512" viewBox="0 0 512 512" fill="none" xmlns="http://www.w3.org/2000/svg" role="img" aria-labelledby="title desc">
  <title id="title">SolFoundry Target Locked sticker</title>
  <desc id="desc">Bounty target sticker for claiming and completing focused tasks.</desc>
  <defs>
    <linearGradient id="sol" x1="97" y1="82" x2="411" y2="423" gradientUnits="userSpaceOnUse">
      <stop offset="0" stop-color="#9945FF"/>
      <stop offset="1" stop-color="#14F195"/>
    </linearGradient>
    <linearGradient id="hot" x1="152" y1="78" x2="347" y2="431" gradientUnits="userSpaceOnUse">
      <stop offset="0" stop-color="#FFD166"/>
      <stop offset="0.5" stop-color="#FF4D6D"/>
      <stop offset="1" stop-color="#9945FF"/>
    </linearGradient>
    <linearGradient id="cool" x1="112" y1="78" x2="398" y2="408" gradientUnits="userSpaceOnUse">
      <stop offset="0" stop-color="#5EE1FF"/>
      <stop offset="1" stop-color="#14F195"/>
    </linearGradient>
    <filter id="shadow" x="0" y="0" width="512" height="512" filterUnits="userSpaceOnUse">
      <feDropShadow dx="0" dy="18" stdDeviation="18" flood-color="#000000" flood-opacity="0.45"/>
    </filter>
    <filter id="glow" x="0" y="0" width="512" height="512" filterUnits="userSpaceOnUse">
      <feGaussianBlur stdDeviation="8" result="blur"/>
      <feMerge>
        <feMergeNode in="blur"/>
        <feMergeNode in="SourceGraphic"/>
      </feMerge>
    </filter>
  </defs>
  <g filter="url(#shadow)">
      <path d="M256 43c26 37 63 44 111 23 2 49 26 75 72 88-31 34-30 72 3 116-48 10-72 37-73 83-49-13-85-2-110 36-29-37-66-43-112-21-2-49-26-75-72-88 31-34 30-72-3-116 48-10 72-37 73-83 49 13 85 2 111-38Z" fill="#1b1010" stroke="#FFFFFF" stroke-width="20" stroke-linejoin="round"/>
            <path d="M257 76c21 29 51 35 90 18 1 39 20 60 57 70-25 27-25 58 2 93-39 8-59 30-60 67-39-10-69-1-89 29-23-30-53-35-90-18-2-39-21-60-57-70 25-27 24-58-2-93 39-8 59-30 60-67 39 10 69 1 89-29Z" fill="none" stroke="#FF4D6D" stroke-width="8" stroke-linejoin="round"/>      <g transform="translate(256 219)">
            <circle cx="0" cy="0" r="123" fill="#090A10" stroke="#FFFFFF" stroke-width="10"/>
            <circle cx="0" cy="0" r="90" fill="none" stroke="#FF4D6D" stroke-width="16"/>
            <circle cx="0" cy="0" r="50" fill="none" stroke="#FFD166" stroke-width="14"/>
            <circle cx="0" cy="0" r="16" fill="#14F195"/>
            <path d="M0-150v58M0 92v58M-150 0h58M92 0h58" stroke="#FFFFFF" stroke-width="12" stroke-linecap="round"/>
          </g>      <g transform="translate(256 220) scale(0.62)">
            <path d="M-74 48-47-19H45l29 67H-74Z" fill="url(#sol)"/>
            <path d="M-61 33H61l13 31H-76l15-31Z" fill="#9945FF" opacity=".62"/>
            <rect x="-62" y="-55" width="124" height="34" rx="8" fill="url(#cool)"/>
            <path d="M-62-44-114-51l12 25 40-4v-14Z" fill="#9945FF"/>
            <rect x="-33" y="49" width="66" height="31" rx="7" fill="#14F195" opacity=".9"/>


            <g transform="translate(30 -78) scale(0.54)">
              <path d="M0-34 8-8 34 0 8 8 0 34-8 8-34 0-8-8Z" fill="#FFD166"/>
              <circle cx="45" cy="-27" r="7" fill="#14F195"/>
              <circle cx="-42" cy="-22" r="6" fill="#9945FF"/>
              <circle cx="36" cy="34" r="5" fill="#FFD166"/>
            </g>
          </g>      <text x="256" y="404" text-anchor="middle" font-family="Arial Black, Impact, Helvetica, sans-serif" font-size="49" font-weight="900" letter-spacing="0" fill="#FFFFFF" stroke="#090A10" stroke-width="9" paint-order="stroke">LOCKED</text>
  </g>
</svg>
